<svg height="512pt" viewBox="0 0 512.02396 512" width="512pt" xmlns="http://www.w3.org/2000/svg"><path d="m453.125 39.269531 43.886719 8.960938c2.980469.75 5.328125 3.042969 6.144531 6.003906s-.019531 6.132813-2.191406 8.304687l-34.699219 26.566407" fill="#e3e7f2"/><path d="m406.535156 260.539062c-9.9375 18.25-23.394531 34.347657-39.597656 47.359376-42.664062 34.132812-119.464844 34.132812-179.199219 25.601562-14.316406-2.066406-28.460937-5.175781-42.324219-9.300781-3.585937-1.023438-6.996093-2.046875-10.238281-3.15625 16.242188-9.941407 31.726563-21.066407 46.335938-33.28125 36.265625 9.472656 83.113281 15.871093 125.695312 3.070312 24.753907-6.789062 45.785157-23.15625 58.453125-45.480469 1.277344-2.304687 2.386719-4.609374 3.496094-6.914062 11.601562 8.734375 24.136719 16.144531 37.378906 22.101562zm0 0" fill="#7facfa"/><path d="m384.007812 254.824219c-9.9375 18.25-23.394531 34.34375-39.597656 47.359375-42.664062 34.132812-119.464844 34.132812-179.199218 25.597656-6.828126-.9375-13.480469-2.21875-19.796876-3.582031-3.585937-1.023438-6.996093-2.046875-10.238281-3.15625 16.242188-9.941407 31.726563-21.066407 46.335938-33.28125 36.265625 9.472656 83.113281 15.871093 125.695312 3.070312 24.753907-6.789062 45.785157-23.15625 58.453125-45.480469 5.941406 3.480469 12.066406 6.644532 18.347656 9.472657zm0 0" fill="#a4c2f7"/><path d="m460.804688 103.101562c-28.925782 38.652344-34.132813 51.199219-34.132813 85.332032-.667969 25.328125-7.585937 50.097656-20.136719 72.105468-4.609375-2.046874-10.242187-4.863281-16.386718-8.363281-7.308594-4.082031-14.324219-8.671875-20.992188-13.738281 17.496094-38.65625 7.511719-85.078125-19.285156-101.203125-7.023438-4.261719-14.351563-8-21.929688-11.179687 12.886719-48.300782 57.769532-81.75 102.65625-90.027344 6.367188-1.183594 12.8125-1.867188 19.285156-2.046875 7.757813 10.503906 13.09375 22.597656 15.617188 35.414062 3.171875 11.398438 1.46875 23.605469-4.695312 33.707031zm0 0" fill="#d4e1f4"/><path d="m440.070312 103.101562c-28.929687 38.652344-34.132812 51.199219-34.132812 85.332032-.5 22.152344-5.890625 43.917968-15.789062 63.742187-7.308594-4.082031-14.324219-8.671875-20.992188-13.738281 17.496094-38.65625 7.511719-85.078125-19.285156-101.203125-7.023438-4.261719-14.351563-8-21.929688-11.179687 12.886719-48.300782 57.769532-81.75 102.65625-90.027344 6.992188 10.015625 11.816406 21.378906 14.164063 33.367187 3.171875 11.398438 1.472656 23.605469-4.691407 33.707031zm0 0" fill="#e3e7f2"/><path d="m449.882812 33.980469c-50.601562 1.023437-107.179687 36.777343-121.941406 92.074219-32.597656-13.652344-59.417968-9.925782-80.46875 11.179687l59.648438-59.648437c9.640625-9.644532 19.285156-19.457032 29.097656-29.097657 19.457031-19.117187 44.542969-43.4375 74.324219-39.511719 15.972656 2.628907 30.179687 11.660157 39.339843 25.003907zm0 0" fill="#a4c2f7"/><path d="m195.761719 189.03125c-1.792969 1.707031-3.671875 3.582031-5.460938 5.460938" fill="#7f5b53"/><path d="m184.839844 199.953125c-1.792969 1.707031-3.671875 3.582031-5.464844 5.460937-1.789062 1.707032-3.667969 3.585938-5.460938 5.460938" fill="#7f5b53"/><path d="m369.15625 238.4375c-11.910156 25.75-34.582031 44.921875-61.949219 52.394531-42.582031 12.800781-89.429687 6.402344-125.695312-3.070312-21.292969-5.617188-42.027344-13.160157-61.953125-22.527344l8.449218-8.535156c6.058594-6.058594 14.929688-14.933594 25.257813-25.171875l4.949219-4.949219c1.621094-1.707031 3.328125-3.414063 5.121094-5.121094 1.703124-1.707031 3.410156-3.5 5.203124-5.207031l10.835938-10.835938c1.792969-1.792968 3.585938-3.667968 5.464844-5.460937 1.875-1.792969 3.582031-3.667969 5.460937-5.460937 1.875-1.792969 3.667969-3.667969 5.460938-5.460938 7.253906-7.339844 14.335937-14.421875 20.90625-20.992188l30.804687-30.804687c21.050782-21.050781 47.871094-24.777344 80.46875-11.179687 7.578125 3.179687 14.90625 6.917968 21.929688 11.179687 26.796875 16.125 36.78125 62.546875 19.285156 101.203125zm0 0" fill="#e3e7f2"/><path d="m181.511719 287.761719c-14.609375 12.214843-30.09375 23.339843-46.335938 33.28125-29.382812 17.925781-60.511719 32.8125-92.914062 44.421875-3.757813 1.335937-7.941407-.113282-10.070313-3.488282-2.125-3.375-1.632812-7.773437 1.1875-10.589843l51.960938-52.019531 34.132812-34.132813h.085938c19.925781 9.367187 40.660156 16.910156 61.953125 22.527344zm0 0" fill="#7facfa"/><path d="m435.207031 68.964844c0 4.714844-3.820312 8.535156-8.535156 8.535156-4.710937 0-8.53125-3.820312-8.53125-8.535156 0-4.710938 3.820313-8.53125 8.53125-8.53125 4.714844 0 8.535156 3.820312 8.535156 8.53125zm0 0" fill="#428dff"/><g fill="#fff"><path d="m442.152344 39.5c1.859375-.5625 3.71875-1.132812 5.589844-1.613281-1.871094.480469-3.730469 1.050781-5.589844 1.613281zm0 0"/><path d="m42.261719 365.464844c4.515625-1.621094 9.472656-3.515625 14.628906-5.546875-1.015625-3.007813-.199219-6.332031 2.089844-8.53125l51.957031-52.019531 34.136719-34.132813h.082031l8.449219-8.535156c6.058593-6.058594 14.933593-14.933594 25.257812-25.171875l4.949219-4.949219c1.621094-1.707031 3.328125-3.414063 5.121094-5.121094 1.707031-1.707031 3.414062-3.5 5.207031-5.207031l16.296875-16.296875c1.792969-1.792969 3.585938-3.667969 5.460938-5.460937 1.878906-1.792969 3.671874-3.667969 5.460937-5.460938 7.253906-7.339844 14.335937-14.421875 20.90625-20.992188l30.808594-30.804687 59.644531-59.648437c9.644531-9.644532 19.289062-19.457032 29.101562-29.097657 15.113282-14.851562 33.628907-32.769531 55.089844-38.222656-2.089844-.566406-4.21875-.996094-6.367187-1.289063-29.78125-3.925781-54.867188 20.394532-74.324219 39.511719-9.8125 9.640625-19.457031 19.453125-29.097656 29.097657l-90.453125 90.453124c-6.570313 6.570313-13.652344 13.652344-20.90625 20.992188-1.792969 1.792969-3.671875 3.582031-5.460938 5.460938-1.792969 1.875-3.671875 3.667968-5.460937 5.460937l-10.925782 10.921875-5.375 5.375c-1.792968 1.707031-3.5 3.5-5.203124 5.207031-1.707032 1.707031-3.5 3.414063-5.121094 5.121094l-4.949219 4.949219c-10.328125 10.238281-19.199219 19.113281-25.257813 25.171875l-8.449218 8.535156h-.085938l-34.132812 34.132813-51.960938 52.050781c-2.78125 2.828125-3.25 7.195312-1.128906 10.546875 2.121094 3.351562 6.269531 4.800781 10.011719 3.5zm0 0"/><path d="m451.855469 36.984375c-1.128907.246094-2.253907.476563-3.414063.757813 1.152344-.296876 2.285156-.511719 3.414063-.757813zm0 0"/><path d="m263.636719 337.980469c-16.835938-.589844-33.625-2.085938-50.296875-4.480469-14.316406-2.066406-28.460938-5.175781-42.324219-9.300781-3.585937-1.023438-7-2.046875-10.242187-3.15625-2.847657 1.757812-5.683594 3.410156-8.53125 5.066406 11.671874 3.183594 23.523437 5.652344 35.496093 7.390625 25.121094 3.683594 50.515625 5.183594 75.898438 4.480469zm0 0"/><path d="m438.714844 40.550781c-1.707032.554688-3.328125 1.175781-4.984375 1.792969 1.65625-.617188 3.308593-1.238281 4.984375-1.792969zm0 0"/><path d="m113.441406 259.191406 128-128 12.0625 12.074219-49.558594 49.554687-78.441406 78.445313zm0 0"/></g><path d="m498.710938 39.867188-40.054688-8.183594c-10.472656-16.652344-27.59375-28-47.011719-31.164063-34.277343-4.539062-61.5 22.28125-81.398437 41.910157-6.410156 6.277343-12.730469 12.660156-19.046875 19.035156l-231.894531 231.84375-76.796876 76.800781c-2.71875 2.707031-3.292968 6.898437-1.402343 10.238281 1.890625 3.34375 5.777343 5.011719 9.5 4.078125 44.15625-12.265625 86.4375-30.480469 125.6875-54.144531 16.394531 5.261719 33.199219 9.160156 50.234375 11.667969 18.496094 2.667969 37.128906 4.253906 55.808594 4.742187-5.972657 7.554688-11.578126 14.917969-13.851563 17.921875-5.507813 7.230469-4.382813 17.511719 2.5625 23.378907l42.351563 34.816406-4.753907 28.253906c-129.980469 19.609375-243.039062 43.445312-244.804687 43.820312-4.269532.910157-7.160156 4.894532-6.707032 9.234376.453126 4.339843 4.109376 7.636718 8.472657 7.644531.597656 0 1.191406-.0625 1.777343-.1875 1.996094-.425781 143.902344-30.328125 292.203126-50.644531.292968.304687.609374.613281.855468.894531-.644531.347656-1.3125.652343-1.996094.914062-2.90625 1.046875-5.023437 3.582031-5.527343 6.632813-.503907 3.046875.679687 6.132812 3.09375 8.058594 2.414062 1.929687 5.679687 2.402343 8.542969 1.238281 10.164062-3.898438 12.945312-9.957031 13.480468-14.351563.214844-1.945312.035156-3.910156-.519531-5.785156 10.40625-1.367188 20.792969-2.671875 31.164063-3.917969.289062.308594.605468.613281.855468.894531-.648437.34375-1.316406.648438-2 .914063-2.90625 1.046875-5.019531 3.585937-5.523437 6.632813-.503907 3.050781.675781 6.132812 3.089843 8.0625 2.414063 1.929687 5.683594 2.402343 8.546876 1.238281 10.160156-3.902344 12.941406-9.960938 13.480468-14.347657.203125-1.839843.050782-3.699218-.445312-5.484374 7.820312-.882813 15.578125-1.710938 23.28125-2.484376l89.265625 52.054688c4.050781 2.074219 9.015625.605469 11.285156-3.335938 2.273437-3.945312 1.050781-8.972656-2.777344-11.4375l-68.699219-40.035156c19.410157-1.707031 38.289063-2.980468 56.25-3.800781 2.269532-.089844 4.40625-1.082031 5.941407-2.753906 1.539062-1.671875 2.34375-3.886719 2.242187-6.152344-.316406-4.664063-4.246094-8.253906-8.917968-8.148437-37.332032 1.703124-78.507813 5.460937-120.488282 10.359374l-39.296875-32.222656-36.097656-29.636718c9.949219-13.089844 23.417969-30.21875 28.597656-35.398438.855469-.871094 1.511719-1.917969 1.917969-3.070312 15.609375-4.558594 30.234375-11.984376 43.121094-21.90625 16.867187-13.65625 30.921875-30.464844 41.367187-49.492188.246094-.332031.472657-.679688.675781-1.042969 0-.09375 0-.175781.058594-.269531 12.925782-23.058594 20.0625-48.90625 20.796875-75.324219 0-32.136719 4.265625-42.667969 32.425781-80.214843 3.121094-4.277344 5.3125-9.160157 6.433594-14.335938l32.078125-24.558594c.300781-.222656.589844-.46875.851563-.734375 4.386718-4.324219 6.066406-10.695312 4.386718-16.621093-1.675781-6.058594-6.542968-10.703126-12.671874-12.09375zm-175.429688 33.570312c6.265625-6.3125 12.535156-12.636719 18.886719-18.875 18.40625-18.066406 41.335937-40.507812 67.25-37.128906 8.132812 1.1875 15.78125 4.574218 22.128906 9.796875-43.878906 7.378906-91.402344 37.792969-108.980469 87.671875-11.363281-4.078125-23.425781-5.859375-35.480468-5.242188zm45.363281 135.5c-4.269531 35.304688-29.554687 64.476562-63.894531 73.710938-65.257812 19.566406-142.378906-8.277344-170.496094-20.136719l15.359375-15.359375 48.253907-48.257813 55.597656-55.585937c22.664062-22.65625 52.75-22.246094 91.96875 1.289062 17.152344 10.207032 26.683594 36.691406 23.210937 64.339844zm-247.386719 66.5625c13.675782 6.140625 27.714844 11.445312 42.035157 15.886719-10.480469 8.019531-21.363281 15.496093-32.609375 22.402343-28.875 17.601563-59.46875 32.226563-91.304688 43.648438zm167.34375 159.785156 13.246094 10.878906c-5.171875.734376-10.324218 1.476563-15.453125 2.226563zm45.125 6.527344 2.390626-14.085938 14.507812 11.945313c-5.621094.6875-11.253906 1.394531-16.898438 2.117187zm-48.640624-77.226562c-5.488282 7.253906-4.324219 17.539062 2.648437 23.382812l33.210937 27.304688-3.644531 21.523437-75.203125-61.84375c3.414063-4.460937 14.234375-18.6875 22.355469-28.414063 12.582031-.398437 25.125-1.621093 37.546875-3.652343-6.851562 8.515625-13.933594 17.757812-16.9375 21.699219zm76.546874-63.351563c-46.414062 37.121094-136.210937 29.015625-172.65625 23.816406-11.316406-1.65625-22.523437-3.980469-33.5625-6.960937 9.949219-6.742188 19.335938-13.742188 28.160157-21 23.210937 6.050781 47.074219 9.238281 71.058593 9.496094 18.625.160156 37.175782-2.394532 55.066407-7.585938 26.230469-7.375 48.625-24.550781 62.546875-47.976562 7.132812 4.84375 14.554687 9.238281 22.230468 13.160156-8.816406 14.09375-19.925781 26.617187-32.871093 37.050781zm56.507813-112.808594c-.542969 21.171875-5.792969 41.960938-15.359375 60.859375-8.03125-4.085937-15.761719-8.730468-23.136719-13.902344 2.925781-7.847656 4.929688-16.007812 5.972657-24.320312 4.328124-34.695312-8.25-67.300781-31.332032-81.152344-5.410156-3.242187-10.691406-6.066406-15.871094-8.53125 16.210938-46.738281 65.109376-75.835937 107.125-78.585937.335938.738281.777344 1.417969 1.316407 2.023437 4.945312 8.070313 8.4375 16.945313 10.316406 26.222656 1.160156 5.449219 1.421875 11.050782.777344 16.582032 0 .203125-.085938.390625-.113281.589844-.46875 3.515624-1.785157 6.867187-3.839844 9.761718-30.164063 40.199219-35.855469 54.535156-35.855469 90.453125zm56.445313-116.4375c-.203126-1.410156-.390626-2.808593-.679688-4.269531-1.125-5.632812-2.757812-11.15625-4.875-16.5l25.804688 5.261719zm0 0" fill="#428dff"/></svg>